<svg id="visual" viewBox="0 0 900 450" width="900" height="450" xmlns="http://www.w3.org/2000/svg" xmlns:xlink="http://www.w3.org/1999/xlink" version="1.1"><rect x="0" y="0" width="900" height="450" fill="#009f9d"></rect><defs><linearGradient id="grad1_0" x1="50%" y1="100%" x2="100%" y2="0%"><stop offset="10%" stop-color="#4bc0b1" stop-opacity="1"></stop><stop offset="90%" stop-color="#4bc0b1" stop-opacity="1"></stop></linearGradient></defs><defs><linearGradient id="grad1_1" x1="50%" y1="100%" x2="100%" y2="0%"><stop offset="10%" stop-color="#4bc0b1" stop-opacity="1"></stop><stop offset="90%" stop-color="#44bbae" stop-opacity="1"></stop></linearGradient></defs><defs><linearGradient id="grad1_2" x1="50%" y1="100%" x2="100%" y2="0%"><stop offset="10%" stop-color="#3cb7ab" stop-opacity="1"></stop><stop offset="90%" stop-color="#44bbae" stop-opacity="1"></stop></linearGradient></defs><defs><linearGradient id="grad1_3" x1="50%" y1="100%" x2="100%" y2="0%"><stop offset="10%" stop-color="#3cb7ab" stop-opacity="1"></stop><stop offset="90%" stop-color="#34b2a9" stop-opacity="1"></stop></linearGradient></defs><defs><linearGradient id="grad1_4" x1="50%" y1="100%" x2="100%" y2="0%"><stop offset="10%" stop-color="#2bada6" stop-opacity="1"></stop><stop offset="90%" stop-color="#34b2a9" stop-opacity="1"></stop></linearGradient></defs><defs><linearGradient id="grad1_5" x1="50%" y1="100%" x2="100%" y2="0%"><stop offset="10%" stop-color="#2bada6" stop-opacity="1"></stop><stop offset="90%" stop-color="#21a8a3" stop-opacity="1"></stop></linearGradient></defs><defs><linearGradient id="grad1_6" x1="50%" y1="100%" x2="100%" y2="0%"><stop offset="10%" stop-color="#15a4a0" stop-opacity="1"></stop><stop offset="90%" stop-color="#21a8a3" stop-opacity="1"></stop></linearGradient></defs><defs><linearGradient id="grad1_7" x1="50%" y1="100%" x2="100%" y2="0%"><stop offset="10%" stop-color="#15a4a0" stop-opacity="1"></stop><stop offset="90%" stop-color="#009f9d" stop-opacity="1"></stop></linearGradient></defs><defs><linearGradient id="grad2_0" x1="0%" y1="100%" x2="50%" y2="0%"><stop offset="10%" stop-color="#4bc0b1" stop-opacity="1"></stop><stop offset="90%" stop-color="#4bc0b1" stop-opacity="1"></stop></linearGradient></defs><defs><linearGradient id="grad2_1" x1="0%" y1="100%" x2="50%" y2="0%"><stop offset="10%" stop-color="#44bbae" stop-opacity="1"></stop><stop offset="90%" stop-color="#4bc0b1" stop-opacity="1"></stop></linearGradient></defs><defs><linearGradient id="grad2_2" x1="0%" y1="100%" x2="50%" y2="0%"><stop offset="10%" stop-color="#44bbae" stop-opacity="1"></stop><stop offset="90%" stop-color="#3cb7ab" stop-opacity="1"></stop></linearGradient></defs><defs><linearGradient id="grad2_3" x1="0%" y1="100%" x2="50%" y2="0%"><stop offset="10%" stop-color="#34b2a9" stop-opacity="1"></stop><stop offset="90%" stop-color="#3cb7ab" stop-opacity="1"></stop></linearGradient></defs><defs><linearGradient id="grad2_4" x1="0%" y1="100%" x2="50%" y2="0%"><stop offset="10%" stop-color="#34b2a9" stop-opacity="1"></stop><stop offset="90%" stop-color="#2bada6" stop-opacity="1"></stop></linearGradient></defs><defs><linearGradient id="grad2_5" x1="0%" y1="100%" x2="50%" y2="0%"><stop offset="10%" stop-color="#21a8a3" stop-opacity="1"></stop><stop offset="90%" stop-color="#2bada6" stop-opacity="1"></stop></linearGradient></defs><defs><linearGradient id="grad2_6" x1="0%" y1="100%" x2="50%" y2="0%"><stop offset="10%" stop-color="#21a8a3" stop-opacity="1"></stop><stop offset="90%" stop-color="#15a4a0" stop-opacity="1"></stop></linearGradient></defs><defs><linearGradient id="grad2_7" x1="0%" y1="100%" x2="50%" y2="0%"><stop offset="10%" stop-color="#009f9d" stop-opacity="1"></stop><stop offset="90%" stop-color="#15a4a0" stop-opacity="1"></stop></linearGradient></defs><g transform="translate(900, 450)"><path d="M-450 0C-439.2 -80.3 -428.4 -160.7 -389.7 -225C-351.1 -289.3 -284.6 -337.6 -215 -372.4C-145.4 -407.2 -72.7 -428.6 0 -450L0 0Z" fill="#0ca19e"></path><path d="M-393.7 0C-384.3 -70.3 -374.8 -140.6 -341 -196.9C-307.2 -253.1 -249 -295.4 -188.1 -325.8C-127.2 -356.3 -63.6 -375 0 -393.7L0 0Z" fill="#1ca6a1"></path><path d="M-337.5 0C-329.4 -60.3 -321.3 -120.5 -292.3 -168.8C-263.3 -217 -213.4 -253.2 -161.3 -279.3C-109.1 -305.4 -54.5 -321.5 0 -337.5L0 0Z" fill="#27aba4"></path><path d="M-281.2 0C-274.5 -50.2 -267.7 -100.4 -243.6 -140.6C-219.4 -180.8 -177.9 -211 -134.4 -232.7C-90.9 -254.5 -45.4 -267.9 0 -281.2L0 0Z" fill="#30afa7"></path><path d="M-225 0C-219.6 -40.2 -214.2 -80.3 -194.9 -112.5C-175.5 -144.7 -142.3 -168.8 -107.5 -186.2C-72.7 -203.6 -36.4 -214.3 0 -225L0 0Z" fill="#38b4aa"></path><path d="M-168.7 0C-164.7 -30.1 -160.6 -60.3 -146.1 -84.4C-131.6 -108.5 -106.7 -126.6 -80.6 -139.6C-54.5 -152.7 -27.3 -160.7 0 -168.7L0 0Z" fill="#40b9ad"></path><path d="M-112.5 0C-109.8 -20.1 -107.1 -40.2 -97.4 -56.3C-87.8 -72.3 -71.1 -84.4 -53.8 -93.1C-36.4 -101.8 -18.2 -107.2 0 -112.5L0 0Z" fill="#47beb0"></path><path d="M-56.2 0C-54.9 -10 -53.5 -20.1 -48.7 -28.1C-43.9 -36.2 -35.6 -42.2 -26.9 -46.5C-18.2 -50.9 -9.1 -53.6 0 -56.2L0 0Z" fill="#4bc0b1"></path></g><g transform="translate(0, 0)"><path d="M450 0C439.2 80.5 428.5 160.9 389.7 225C350.9 289.1 284.1 336.8 214.5 371.5C144.9 406.3 72.4 428.1 0 450L0 0Z" fill="#0ca19e"></path><path d="M393.8 0C384.3 70.4 374.9 140.8 341 196.9C307.1 252.9 248.6 294.7 187.7 325.1C126.8 355.5 63.4 374.6 0 393.8L0 0Z" fill="#1ca6a1"></path><path d="M337.5 0C329.4 60.3 321.4 120.7 292.3 168.7C263.2 216.8 213.1 252.6 160.9 278.6C108.7 304.7 54.3 321.1 0 337.5L0 0Z" fill="#27aba4"></path><path d="M281.3 0C274.5 50.3 267.8 100.6 243.6 140.6C219.3 180.7 177.6 210.5 134.1 232.2C90.5 253.9 45.3 267.6 0 281.3L0 0Z" fill="#30afa7"></path><path d="M225 0C219.6 40.2 214.2 80.5 194.9 112.5C175.5 144.5 142.1 168.4 107.3 185.8C72.4 203.1 36.2 214.1 0 225L0 0Z" fill="#38b4aa"></path><path d="M168.8 0C164.7 30.2 160.7 60.3 146.1 84.4C131.6 108.4 106.5 126.3 80.4 139.3C54.3 152.4 27.2 160.6 0 168.8L0 0Z" fill="#40b9ad"></path><path d="M112.5 0C109.8 20.1 107.1 40.2 97.4 56.2C87.7 72.3 71 84.2 53.6 92.9C36.2 101.6 18.1 107 0 112.5L0 0Z" fill="#47beb0"></path><path d="M56.3 0C54.9 10.1 53.6 20.1 48.7 28.1C43.9 36.1 35.5 42.1 26.8 46.4C18.1 50.8 9.1 53.5 0 56.3L0 0Z" fill="#4bc0b1"></path></g></svg>